<svg width="266" height="266" viewBox="0 0 266 266" fill="none" xmlns="http://www.w3.org/2000/svg">
<circle cx="133" cy="133" r="133" fill="#173D7A"/>
<circle cx="133" cy="133" r="130" stroke="white" stroke-width="2"/>
<path d="M76.0188 112.683L66.9188 112.683L66.9188 95.2825L103.146 95.2825L103.146 141.586C103.146 149.515 98.879 156.387 89.9522 161.96C81.0412 167.646 70.4455 170.489 57.8189 170.489C45.3811 170.489 34.5965 167.646 25.8744 161.96C16.9633 156.387 12.5078 149.531 12.5078 141.586L39.8078 141.586C39.8078 144.787 41.4766 147.5 45.0033 149.758C48.5299 152.017 52.7965 153.073 57.8189 153.073C62.8254 153.073 67.1078 152.017 70.6344 149.758C74.1611 147.516 76.0188 144.787 76.0188 141.586L76.0188 112.683Z" fill="white"/>
<path d="M181.74 124.475L141.468 167.429H110.48L181.74 92.2825L253 167.429H163.883V151.272H206.889L181.74 124.475Z" fill="#FDFDFD"/>
</svg>
