<svg width="220" height="25" viewBox="0 0 220 25" fill="none" xmlns="http://www.w3.org/2000/svg">
<path fill-rule="evenodd" clip-rule="evenodd" d="M2.81159 0.5H62.6277C64.176 0.5 65.4393 1.73143 65.4393 3.23714V21.7657C65.4393 23.2714 64.173 24.5 62.6277 24.5H2.81159C1.26624 24.5 0 23.2686 0 21.7657V3.23714C0 1.73143 1.26624 0.5 2.81159 0.5Z" fill="#FDFDFD"/>
<path d="M51.4515 5.82022C54.4658 5.82022 57.0659 6.46593 59.2165 7.75736C61.367 9.04879 62.4394 10.6088 62.4394 12.4431C62.4394 14.2545 61.3641 15.8174 59.2165 17.1088C57.0688 18.4002 54.4688 19.0459 51.4515 19.0459H50.5848V15.9831H51.4515C53.0791 15.9831 54.4658 15.6488 55.6116 14.9431C56.7897 14.2545 57.3803 13.4231 57.3803 12.4431C57.3803 11.4431 56.7897 10.6116 55.6116 9.92307C54.4688 9.2145 53.0821 8.88307 51.4515 8.88307H48.8867V21.0859L43.8247 18.0259V8.88307H42.1266V5.82022H51.4515ZM33.6712 13.9631H30.275V10.9002H38.7333L33.6712 13.9631ZM40.4284 5.82022V8.88022H28.5739V15.9802H35.3664V14.9802H40.4255V19.0431H23.5148V8.88022H21.8167V5.82022H40.4284ZM15.0566 8.88022H13.3584V5.82022H20.1186V13.9631C20.1186 15.3574 19.3224 16.5659 17.6566 17.5459C15.9938 18.5459 14.0165 19.0459 11.6603 19.0459C9.33936 19.0459 7.32688 18.5459 5.69927 17.5459C4.03641 16.5659 3.20498 15.3602 3.20498 13.9631H8.29934C8.29934 14.5259 8.61075 15.0031 9.26885 15.4002C9.92694 15.7974 10.7231 15.9831 11.6603 15.9831C12.5946 15.9831 13.3937 15.7974 14.0518 15.4002C14.7099 15.0059 15.0566 14.5259 15.0566 13.9631V8.88022Z" fill="#173D7A"/>
<path d="M213.243 13.0658V21.083L208.148 18.023V13.0658L201.388 9.00583V4.6744L210.71 10.2773L220 4.6744V9.00583L213.243 13.0658ZM184.478 13.0658V19.043H179.383V5.6944L189.54 11.7973L199.696 5.6944V19.043H194.637V13.0658L189.537 16.1287L184.478 13.0658ZM170.925 13.9601H167.529V10.9001H175.987L170.925 13.9601ZM177.682 5.82011V8.88011H165.828V15.9801H172.62V14.9801H177.679V19.043H160.766V8.88011H159.067V5.82011H177.682ZM146.384 5.82011C149.399 5.82011 151.999 6.46583 154.149 7.75725C156.3 9.04868 157.372 10.6087 157.372 12.443C157.372 14.2544 156.297 15.8173 154.149 17.1087C152.002 18.4001 149.402 19.0458 146.384 19.0458H145.518V15.9801H146.384C148.012 15.9801 149.399 15.6458 150.545 14.9401C151.723 14.2515 152.313 13.4201 152.313 12.4401C152.313 11.4401 151.723 10.6058 150.545 9.92011C149.402 9.21154 148.015 8.88011 146.384 8.88011H143.82V21.083L138.758 18.023V8.88011H137.06V5.82011H146.384ZM125.208 10.9001L117.546 19.043H111.652L125.205 4.79725L138.758 19.043H121.809V15.9801H129.988L125.208 10.9001ZM113.353 10.9001H108.291V8.88011H105.727C104.096 8.88011 102.712 9.2144 101.566 9.92011C100.388 10.6058 99.8331 11.4401 99.8331 12.4401C99.8331 13.4173 100.388 14.2515 101.566 14.9401C102.709 15.6487 104.096 15.9801 105.727 15.9801H109.99V19.043H105.727C102.712 19.043 100.112 18.3973 97.9616 17.1058C95.814 15.8144 94.7387 14.2515 94.7387 12.4401C94.7387 10.6058 95.814 9.04583 97.9616 7.7544C100.109 6.46297 102.709 5.81725 105.727 5.81725H113.35V10.9001H113.353ZM82.8872 10.9001L75.228 19.043H69.3345L82.8872 4.79725L96.4398 19.043H79.4909V15.9801H87.6701L82.8872 10.9001Z" fill="#FDFDFD"/>
</svg>
