<svg id="icon_search" xmlns="http://www.w3.org/2000/svg" width="17.983" height="17.983" viewBox="0 0 17.983 17.983">
  <path id="icon_search-2" data-name="icon_search" d="M14.274,12.622A7.617,7.617,0,0,0,15.848,7.93,7.89,7.89,0,0,0,7.98,0,7.986,7.986,0,0,0,0,7.93a7.986,7.986,0,0,0,7.98,7.93A7.493,7.493,0,0,0,12.7,14.3l3.372,3.351a1.091,1.091,0,0,0,1.574,0,1.075,1.075,0,0,0,0-1.564Zm-6.294.894A5.644,5.644,0,0,1,2.248,7.93a5.732,5.732,0,0,1,11.464,0A5.644,5.644,0,0,1,7.98,13.515Z" fill="#fff"/>
</svg>
