<svg id="pie-chart" xmlns="http://www.w3.org/2000/svg" width="15.641" height="15.641" viewBox="0 0 15.641 15.641">
  <g id="Group_2199" data-name="Group 2199" transform="translate(1.674 1.675)">
    <g id="Group_2198" data-name="Group 2198">
      <path id="Path_812" data-name="Path 812" d="M63.785,54.842a.459.459,0,0,0-.6.437v2.706a.461.461,0,0,0,.24.407,3.716,3.716,0,1,1-5.044,5.044.463.463,0,0,0-.406-.24H55.272a.459.459,0,0,0-.437.6,7.137,7.137,0,1,0,8.951-8.951Zm-2.6,13.011a6.22,6.22,0,0,1-5.254-3.741H57.72a4.633,4.633,0,0,0,3.465,2.147ZM64.1,57.727V55.938a6.22,6.22,0,0,1,3.741,5.254H66.252A4.633,4.633,0,0,0,64.1,57.727Zm-2,10.126V66.26a4.64,4.64,0,0,0,4.151-4.151h1.593A6.229,6.229,0,0,1,62.1,67.853Z" transform="translate(-54.813 -54.82)" fill="#8890b5"/>
    </g>
  </g>
  <g id="Group_2201" data-name="Group 2201">
    <g id="Group_2200" data-name="Group 2200">
      <path id="Path_813" data-name="Path 813" d="M8.5,0A8.5,8.5,0,0,0,0,8.5a.458.458,0,0,0,.458.458H8.5A.458.458,0,0,0,8.963,8.5V.458A.458.458,0,0,0,8.5,0ZM8.047,8.047H.93A7.585,7.585,0,0,1,8.047.93Z" fill="#8890b5"/>
    </g>
  </g>
</svg>
