<svg id="menu" xmlns="http://www.w3.org/2000/svg" width="15.237" height="15.237" viewBox="0 0 15.237 15.237">
  <path id="Path_768" data-name="Path 768" d="M5.178,7.142H1.964A1.966,1.966,0,0,1,0,5.178V1.964A1.966,1.966,0,0,1,1.964,0H5.178A1.966,1.966,0,0,1,7.142,1.964V5.178A1.966,1.966,0,0,1,5.178,7.142ZM1.964.952A1.013,1.013,0,0,0,.952,1.964V5.178A1.013,1.013,0,0,0,1.964,6.19H5.178A1.013,1.013,0,0,0,6.19,5.178V1.964A1.013,1.013,0,0,0,5.178.952Z" fill="#8890b5"/>
  <path id="Path_769" data-name="Path 769" d="M277.178,7.142h-3.214A1.966,1.966,0,0,1,272,5.178V1.964A1.966,1.966,0,0,1,273.964,0h3.214a1.966,1.966,0,0,1,1.964,1.964V5.178A1.966,1.966,0,0,1,277.178,7.142ZM273.964.952a1.013,1.013,0,0,0-1.012,1.012V5.178a1.013,1.013,0,0,0,1.012,1.012h3.214a1.013,1.013,0,0,0,1.012-1.012V1.964A1.013,1.013,0,0,0,277.178.952Z" transform="translate(-263.905)" fill="#8890b5"/>
  <path id="Path_770" data-name="Path 770" d="M275.571,279.142a3.571,3.571,0,1,1,3.571-3.571A3.575,3.575,0,0,1,275.571,279.142Zm0-6.19a2.619,2.619,0,1,0,2.619,2.619A2.622,2.622,0,0,0,275.571,272.952Z" transform="translate(-263.905 -263.905)" fill="#8890b5"/>
  <path id="Path_771" data-name="Path 771" d="M5.178,279.142H1.964A1.966,1.966,0,0,1,0,277.178v-3.214A1.966,1.966,0,0,1,1.964,272H5.178a1.966,1.966,0,0,1,1.964,1.964v3.214A1.966,1.966,0,0,1,5.178,279.142Zm-3.214-6.19a1.013,1.013,0,0,0-1.012,1.012v3.214a1.013,1.013,0,0,0,1.012,1.012H5.178a1.013,1.013,0,0,0,1.012-1.012v-3.214a1.013,1.013,0,0,0-1.012-1.012Z" transform="translate(0 -263.905)" fill="#8890b5"/>
</svg>
