<svg id="_30-minutes" data-name="30-minutes" xmlns="http://www.w3.org/2000/svg" width="16.189" height="18.502" viewBox="0 0 16.189 18.502">
  <path id="Path_772" data-name="Path 772" d="M1.735,241.156H.578a.578.578,0,1,1,0-1.156H1.735a.578.578,0,1,1,0,1.156Zm0,0" transform="translate(0 -231.327)" fill="#8890b5"/>
  <path id="Path_773" data-name="Path 773" d="M321.735,241.156h-1.156a.578.578,0,1,1,0-1.156h1.156a.578.578,0,1,1,0,1.156Zm0,0" transform="translate(-308.436 -231.327)" fill="#8890b5"/>
  <path id="Path_774" data-name="Path 774" d="M52.943,117.5a.574.574,0,0,1-.409-.17l-.818-.818a.578.578,0,0,1,.818-.818l.818.818a.579.579,0,0,1-.409.988Zm0,0" transform="translate(-49.684 -111.35)" fill="#8890b5"/>
  <path id="Path_775" data-name="Path 775" d="M279.205,343.783a.574.574,0,0,1-.409-.17l-.818-.818a.578.578,0,1,1,.818-.818l.818.818a.579.579,0,0,1-.409.988Zm0,0" transform="translate(-267.77 -329.457)" fill="#8890b5"/>
  <path id="Path_776" data-name="Path 776" d="M52.145,343.783a.579.579,0,0,1-.409-.988l.818-.818a.578.578,0,0,1,.818.818l-.818.818A.579.579,0,0,1,52.145,343.783Zm0,0" transform="translate(-49.704 -329.457)" fill="#8890b5"/>
  <path id="Path_777" data-name="Path 777" d="M278.406,117.5a.579.579,0,0,1-.409-.988l.818-.818a.578.578,0,0,1,.818.818l-.818.818A.58.58,0,0,1,278.406,117.5Zm0,0" transform="translate(-267.788 -111.35)" fill="#8890b5"/>
  <path id="Path_778" data-name="Path 778" d="M176.578,18.5a.578.578,0,0,1-.578-.578V.578A.578.578,0,0,1,176.578,0a9.251,9.251,0,0,1,0,18.5Zm.578-17.326V17.325a8.1,8.1,0,0,0,0-16.149Zm0,0" transform="translate(-169.64)" fill="#8890b5"/>
</svg>
