<svg xmlns="http://www.w3.org/2000/svg" width="14.05" height="13.172" viewBox="0 0 14.05 13.172">
  <g id="note" transform="translate(0 -16)">
    <path id="Path_779" data-name="Path 779" d="M12.239,16H1.811A1.813,1.813,0,0,0,0,17.811v9.55a1.813,1.813,0,0,0,1.811,1.811h9.165a2.016,2.016,0,0,0,1.435-.594l1.044-1.044A2.016,2.016,0,0,0,14.05,26.1V17.811A1.813,1.813,0,0,0,12.239,16Zm-10.428.878H12.239a.934.934,0,0,1,.933.933v1.262H.878V17.811A.934.934,0,0,1,1.811,16.878ZM.878,27.361V19.952H13.172v5.708H11.8a1.264,1.264,0,0,0-1.262,1.262v1.372H1.811A.934.934,0,0,1,.878,27.361Zm11.957-.448L11.79,27.957a1.149,1.149,0,0,1-.375.251V26.922a.385.385,0,0,1,.384-.384h1.286A1.15,1.15,0,0,1,12.835,26.912Z" fill="#8890b5"/>
    <path id="Path_780" data-name="Path 780" d="M119.9,208.439a.439.439,0,0,0-.439-.439h-7.025a.439.439,0,0,0,0,.878h7.025A.439.439,0,0,0,119.9,208.439Z" transform="translate(-108.927 -186.731)" fill="#8890b5"/>
    <path id="Path_781" data-name="Path 781" d="M149.708,288h-5.269a.439.439,0,1,0,0,.878h5.269a.439.439,0,0,0,0-.878Z" transform="translate(-140.048 -264.536)" fill="#8890b5"/>
  </g>
</svg>
