<svg xmlns="http://www.w3.org/2000/svg" width="13.732" height="11.588" viewBox="0 0 13.732 11.588">
  <g id="switch" transform="translate(0 -1)">
    <path id="Path_782" data-name="Path 782" d="M2.861,5.722A2.861,2.861,0,1,1,5.722,2.861,2.864,2.864,0,0,1,2.861,5.722Zm0-4.864a2,2,0,1,0,2,2,2,2,0,0,0-2-2Zm0,0" transform="translate(0 1)" fill="#8890b5"/>
    <path id="Path_783" data-name="Path 783" d="M171.671,40.59h-7.009a.408.408,0,1,1,0-.814h7.009a.816.816,0,1,0,0-1.629h-7.187a.408.408,0,1,1,0-.814h7.187a1.631,1.631,0,1,1,0,3.258Zm0,0" transform="translate(-159.655 -35.243)" fill="#8890b5"/>
    <path id="Path_784" data-name="Path 784" d="M301.529,261.722a2.861,2.861,0,1,1,2.861-2.861A2.864,2.864,0,0,1,301.529,261.722Zm0-4.864a2,2,0,1,0,2,2A2,2,0,0,0,301.529,256.858Zm0,0" transform="translate(-290.657 -249.134)" fill="#8890b5"/>
    <path id="Path_785" data-name="Path 785" d="M8.726,296.491H1.717a1.585,1.585,0,1,1,0-3.159H8.9a.4.4,0,1,1,0,.79H1.717a.792.792,0,1,0,0,1.579H8.726a.4.4,0,1,1,0,.79Zm0,0" transform="translate(0 -285.327)" fill="#8890b5"/>
  </g>
</svg>
