<svg xmlns="http://www.w3.org/2000/svg" width="13.985" height="13.964" viewBox="0 0 13.985 13.964">
  <g id="add_1_" data-name="add (1)" transform="translate(0 -0.036)">
    <path id="Path_790" data-name="Path 790" d="M14.788,18.575a3.788,3.788,0,1,1,3.788-3.788A3.792,3.792,0,0,1,14.788,18.575Zm0-6.7A2.913,2.913,0,1,0,17.7,14.788,2.917,2.917,0,0,0,14.788,11.874Z" transform="translate(-4.59 -4.575)" fill="#8890b5"/>
    <path id="Path_791" data-name="Path 791" d="M17.187,18.079a.437.437,0,0,1-.437-.437v-3.2a.437.437,0,1,1,.874,0v3.2A.437.437,0,0,1,17.187,18.079Z" transform="translate(-6.99 -5.827)" fill="#8890b5"/>
    <path id="Path_792" data-name="Path 792" d="M17.642,17.624h-3.2a.437.437,0,1,1,0-.874h3.2a.437.437,0,1,1,0,.874Z" transform="translate(-5.842 -6.975)" fill="#8890b5"/>
    <path id="Path_793" data-name="Path 793" d="M17.833,6.66a.434.434,0,0,1-.309-.128L15.114,4.123a.437.437,0,0,1,.618-.618l2.409,2.409a.437.437,0,0,1-.309.746Z" transform="translate(-6.254 -1.394)" fill="#8890b5"/>
    <path id="Path_794" data-name="Path 794" d="M.437,14a.437.437,0,0,1-.411-.586L1.413,9.591a.431.431,0,0,1,.1-.16L10.3.65a2.2,2.2,0,0,1,3.049,0,2.147,2.147,0,0,1,0,3.049L11.521,5.528a.437.437,0,0,1-.618-.618l1.83-1.83a1.273,1.273,0,0,0,0-1.812,1.3,1.3,0,0,0-1.81,0L2.2,9.981,1.167,12.834,4.02,11.8l.875-.876a.437.437,0,0,1,.618.618l-.945.943a.433.433,0,0,1-.16.1L.586,13.974A.442.442,0,0,1,.437,14Z" transform="translate(0 0)" fill="#8890b5"/>
    <path id="Path_795" data-name="Path 795" d="M5.252,19.251a.434.434,0,0,1-.309-.128L2.508,16.689a.437.437,0,1,1,.618-.618L5.561,18.5a.437.437,0,0,1-.309.746Z" transform="translate(-0.993 -6.637)" fill="#8890b5"/>
  </g>
</svg>
