<svg xmlns="http://www.w3.org/2000/svg" width="16.71" height="10.111" viewBox="0 0 16.71 10.111">
  <g id="Group_2196" data-name="Group 2196" transform="translate(-10.138 -18.163)">
    <path id="Path_796" data-name="Path 796" d="M21.792,18.163h-6.6a5.056,5.056,0,0,0,0,10.111h6.6a5.056,5.056,0,1,0,0-10.111Zm4.293,5.055a4.3,4.3,0,0,1-4.293,4.292h-6.6a4.292,4.292,0,1,1,0-8.585h6.6A4.3,4.3,0,0,1,26.085,23.218Z" fill="#8890b5"/>
    <path id="Path_797" data-name="Path 797" d="M32.827,21.975A3.427,3.427,0,1,0,36.255,25.4,3.431,3.431,0,0,0,32.827,21.975Zm2.7,3.427a2.7,2.7,0,1,1-2.7-2.7A2.706,2.706,0,0,1,35.53,25.4Z" transform="translate(-11.035 -2.184)" fill="#8890b5"/>
    <path id="Path_798" data-name="Path 798" d="M20.819,23.956a.382.382,0,0,0-.382.382v4.4a.382.382,0,1,0,.764,0v-4.4A.382.382,0,0,0,20.819,23.956Z" transform="translate(-5.9 -3.319)" fill="#8890b5"/>
  </g>
</svg>
