<svg xmlns="http://www.w3.org/2000/svg" width="15.838" height="14.847" viewBox="0 0 15.838 14.847">
  <g id="browser" transform="translate(0 -16.017)">
    <path id="Path_765" data-name="Path 765" d="M51.94,201.367H41.423A1.425,1.425,0,0,1,40,199.944v-7.486a.495.495,0,0,1,.99,0v7.486a.434.434,0,0,0,.433.433H51.94a.434.434,0,0,0,.433-.433v-7.486a.495.495,0,0,1,.99,0v7.486A1.425,1.425,0,0,1,51.94,201.367Z" transform="translate(-38.762 -170.503)" fill="#8890b5"/>
    <path id="Path_766" data-name="Path 766" d="M15.343,23.687a.493.493,0,0,1-.35-.145L8.838,17.386a1.3,1.3,0,0,0-1.837,0L.845,23.542a.495.495,0,0,1-.7-.7L6.3,16.686a2.292,2.292,0,0,1,3.237,0l6.155,6.155a.495.495,0,0,1-.35.845Z" fill="#8890b5"/>
    <path id="Path_767" data-name="Path 767" d="M180.454,294.417h-3.959a.5.5,0,0,1-.495-.495V289.53a1.548,1.548,0,0,1,1.547-1.547H179.4a1.548,1.548,0,0,1,1.547,1.547v4.393A.5.5,0,0,1,180.454,294.417Zm-3.465-.99h2.97v-3.9a.557.557,0,0,0-.557-.557h-1.856a.557.557,0,0,0-.557.557Z" transform="translate(-170.555 -263.553)" fill="#8890b5"/>
  </g>
</svg>
